<svg xmlns="http://www.w3.org/2000/svg" width="53" height="22"><g fill="none" fill-rule="evenodd"><text fill="#444E60" font-family="PingFangSC-Medium, PingFang SC" font-size="16" font-weight="400"><tspan x="24" y="17">Flat</tspan></text><path fill="#D1E1FA" d="M2.727 15.545h2.728v2.728a2.727 2.727 0 1 1-2.728-2.728Z"/><path fill="#83B1FD" d="M4.54 8.273h8.187v2.732a2.722 2.722 0 0 1-2.722 2.722H4.54a2.722 2.722 0 0 1-2.722-2.722v-.01A2.722 2.722 0 0 1 4.54 8.273Z"/><path fill="#3381FF" d="M6.358 1H20v2.733a2.722 2.722 0 0 1-2.722 2.722H6.358a2.722 2.722 0 0 1-2.722-2.722v-.011A2.722 2.722 0 0 1 6.358 1Z"/></g></svg>